<svg width="500" height="500" xmlns="http://www.w3.org/2000/svg"><rect x="270" y="70" width="10" height="10" fill="rgb(0, 0, 0)"/><rect x="280" y="70" width="10" height="10" fill="rgb(0, 0, 0)"/><rect x="290" y="70" width="10" height="10" fill="rgb(0, 0, 0)"/><rect x="300" y="70" width="10" height="10" fill="rgb(0, 0, 0)"/><rect x="260" y="80" width="10" height="10" fill="rgb(0, 0, 0)"/><rect x="270" y="80" width="10" height="10" fill="rgb(0, 0, 0)"/><rect x="280" y="80" width="10" height="10" fill="rgb(255, 64, 19)"/><rect x="290" y="80" width="10" height="10" fill="rgb(255, 64, 19)"/><rect x="300" y="80" width="10" height="10" fill="rgb(0, 0, 0)"/><rect x="310" y="80" width="10" height="10" fill="rgb(0, 0, 0)"/><rect x="330" y="80" width="10" height="10" fill="rgb(0, 0, 0)"/><rect x="340" y="80" width="10" height="10" fill="rgb(0, 0, 0)"/><rect x="150" y="90" width="10" height="10" fill="rgb(0, 0, 0)"/><rect x="160" y="90" width="10" height="10" fill="rgb(0, 0, 0)"/><rect x="170" y="90" width="10" height="10" fill="rgb(0, 0, 0)"/><rect x="180" y="90" width="10" height="10" fill="rgb(0, 0, 0)"/><rect x="190" y="90" width="10" height="10" fill="rgb(0, 0, 0)"/><rect x="260" y="90" width="10" height="10" fill="rgb(0, 0, 0)"/><rect x="270" y="90" width="10" height="10" fill="rgb(255, 64, 19)"/><rect x="280" y="90" width="10" height="10" fill="rgb(255, 64, 19)"/><rect x="290" y="90" width="10" height="10" fill="rgb(255, 64, 19)"/><rect x="300" y="90" width="10" height="10" fill="rgb(255, 64, 19)"/><rect x="310" y="90" width="10" height="10" fill="rgb(0, 0, 0)"/><rect x="320" y="90" width="10" height="10" fill="rgb(0, 0, 0)"/><rect x="340" y="90" width="10" height="10" fill="rgb(0, 0, 0)"/><rect x="350" y="90" width="10" height="10" fill="rgb(0, 0, 0)"/><rect x="360" y="90" width="10" height="10" fill="rgb(0, 0, 0)"/><rect x="370" y="90" width="10" height="10" fill="rgb(0, 0, 0)"/><rect x="380" y="90" width="10" height="10" fill="rgb(0, 0, 0)"/><rect x="150" y="100" width="10" height="10" fill="rgb(0, 0, 0)"/><rect x="200" y="100" width="10" height="10" fill="rgb(0, 0, 0)"/><rect x="260" y="100" width="10" height="10" fill="rgb(0, 0, 0)"/><rect x="270" y="100" width="10" height="10" fill="rgb(255, 64, 19)"/><rect x="280" y="100" width="10" height="10" fill="rgb(255, 64, 19)"/><rect x="290" y="100" width="10" height="10" fill="rgb(255, 64, 19)"/><rect x="300" y="100" width="10" height="10" fill="rgb(255, 64, 19)"/><rect x="310" y="100" width="10" height="10" fill="rgb(255, 64, 19)"/><rect x="320" y="100" width="10" height="10" fill="rgb(0, 0, 0)"/><rect x="330" y="100" width="10" height="10" fill="rgb(0, 0, 0)"/><rect x="340" y="100" width="10" height="10" fill="rgb(0, 0, 0)"/><rect x="350" y="100" width="10" height="10" fill="rgb(255, 64, 19)"/><rect x="360" y="100" width="10" height="10" fill="rgb(255, 64, 19)"/><rect x="370" y="100" width="10" height="10" fill="rgb(255, 64, 19)"/><rect x="380" y="100" width="10" height="10" fill="rgb(0, 0, 0)"/><rect x="150" y="110" width="10" height="10" fill="rgb(0, 0, 0)"/><rect x="200" y="110" width="10" height="10" fill="rgb(0, 0, 0)"/><rect x="260" y="110" width="10" height="10" fill="rgb(0, 0, 0)"/><rect x="270" y="110" width="10" height="10" fill="rgb(255, 64, 19)"/><rect x="280" y="110" width="10" height="10" fill="rgb(255, 64, 19)"/><rect x="290" y="110" width="10" height="10" fill="rgb(0, 0, 0)"/><rect x="300" y="110" width="10" height="10" fill="rgb(0, 0, 0)"/><rect x="310" y="110" width="10" height="10" fill="rgb(0, 0, 0)"/><rect x="320" y="110" width="10" height="10" fill="rgb(255, 64, 19)"/><rect x="330" y="110" width="10" height="10" fill="rgb(255, 64, 19)"/><rect x="340" y="110" width="10" height="10" fill="rgb(0, 0, 0)"/><rect x="350" y="110" width="10" height="10" fill="rgb(0, 0, 0)"/><rect x="360" y="110" width="10" height="10" fill="rgb(255, 64, 19)"/><rect x="370" y="110" width="10" height="10" fill="rgb(255, 64, 19)"/><rect x="380" y="110" width="10" height="10" fill="rgb(255, 64, 19)"/><rect x="390" y="110" width="10" height="10" fill="rgb(0, 0, 0)"/><rect x="140" y="120" width="10" height="10" fill="rgb(0, 0, 0)"/><rect x="210" y="120" width="10" height="10" fill="rgb(0, 0, 0)"/><rect x="220" y="120" width="10" height="10" fill="rgb(0, 0, 0)"/><rect x="230" y="120" width="10" height="10" fill="rgb(0, 0, 0)"/><rect x="240" y="120" width="10" height="10" fill="rgb(0, 0, 0)"/><rect x="250" y="120" width="10" height="10" fill="rgb(0, 0, 0)"/><rect x="260" y="120" width="10" height="10" fill="rgb(0, 0, 0)"/><rect x="270" y="120" width="10" height="10" fill="rgb(0, 0, 0)"/><rect x="280" y="120" width="10" height="10" fill="rgb(255, 64, 19)"/><rect x="290" y="120" width="10" height="10" fill="rgb(255, 64, 19)"/><rect x="300" y="120" width="10" height="10" fill="rgb(255, 64, 19)"/><rect x="310" y="120" width="10" height="10" fill="rgb(0, 0, 0)"/><rect x="320" y="120" width="10" height="10" fill="rgb(0, 0, 0)"/><rect x="330" y="120" width="10" height="10" fill="rgb(0, 0, 0)"/><rect x="340" y="120" width="10" height="10" fill="rgb(255, 64, 19)"/><rect x="350" y="120" width="10" height="10" fill="rgb(255, 64, 19)"/><rect x="360" y="120" width="10" height="10" fill="rgb(0, 0, 0)"/><rect x="370" y="120" width="10" height="10" fill="rgb(255, 64, 19)"/><rect x="380" y="120" width="10" height="10" fill="rgb(255, 64, 19)"/><rect x="390" y="120" width="10" height="10" fill="rgb(0, 0, 0)"/><rect x="140" y="130" width="10" height="10" fill="rgb(0, 0, 0)"/><rect x="150" y="130" width="10" height="10" fill="rgb(0, 0, 0)"/><rect x="270" y="130" width="10" height="10" fill="rgb(0, 0, 0)"/><rect x="280" y="130" width="10" height="10" fill="rgb(0, 0, 0)"/><rect x="290" y="130" width="10" height="10" fill="rgb(0, 0, 0)"/><rect x="300" y="130" width="10" height="10" fill="rgb(0, 0, 0)"/><rect x="310" y="130" width="10" height="10" fill="rgb(0, 0, 0)"/><rect x="320" y="130" width="10" height="10" fill="rgb(255, 64, 19)"/><rect x="330" y="130" width="10" height="10" fill="rgb(0, 0, 0)"/><rect x="340" y="130" width="10" height="10" fill="rgb(0, 0, 0)"/><rect x="350" y="130" width="10" height="10" fill="rgb(255, 64, 19)"/><rect x="360" y="130" width="10" height="10" fill="rgb(255, 64, 19)"/><rect x="370" y="130" width="10" height="10" fill="rgb(255, 64, 19)"/><rect x="380" y="130" width="10" height="10" fill="rgb(0, 0, 0)"/><rect x="140" y="140" width="10" height="10" fill="rgb(0, 0, 0)"/><rect x="310" y="140" width="10" height="10" fill="rgb(0, 0, 0)"/><rect x="320" y="140" width="10" height="10" fill="rgb(0, 0, 0)"/><rect x="340" y="140" width="10" height="10" fill="rgb(0, 0, 0)"/><rect x="350" y="140" width="10" height="10" fill="rgb(255, 64, 19)"/><rect x="360" y="140" width="10" height="10" fill="rgb(255, 64, 19)"/><rect x="370" y="140" width="10" height="10" fill="rgb(0, 0, 0)"/><rect x="380" y="140" width="10" height="10" fill="rgb(0, 0, 0)"/><rect x="140" y="150" width="10" height="10" fill="rgb(0, 0, 0)"/><rect x="340" y="150" width="10" height="10" fill="rgb(0, 0, 0)"/><rect x="350" y="150" width="10" height="10" fill="rgb(0, 0, 0)"/><rect x="360" y="150" width="10" height="10" fill="rgb(0, 0, 0)"/><rect x="370" y="150" width="10" height="10" fill="rgb(0, 0, 0)"/><rect x="130" y="160" width="10" height="10" fill="rgb(0, 0, 0)"/><rect x="370" y="160" width="10" height="10" fill="rgb(0, 0, 0)"/><rect x="120" y="170" width="10" height="10" fill="rgb(0, 0, 0)"/><rect x="130" y="170" width="10" height="10" fill="rgb(0, 0, 0)"/><rect x="140" y="170" width="10" height="10" fill="rgb(0, 0, 0)"/><rect x="380" y="170" width="10" height="10" fill="rgb(0, 0, 0)"/><rect x="130" y="180" width="10" height="10" fill="rgb(0, 0, 0)"/><rect x="180" y="180" width="10" height="10" fill="rgb(0, 0, 0)"/><rect x="190" y="180" width="10" height="10" fill="rgb(0, 0, 0)"/><rect x="320" y="180" width="10" height="10" fill="rgb(0, 0, 0)"/><rect x="330" y="180" width="10" height="10" fill="rgb(0, 0, 0)"/><rect x="370" y="180" width="10" height="10" fill="rgb(0, 0, 0)"/><rect x="380" y="180" width="10" height="10" fill="rgb(0, 0, 0)"/><rect x="390" y="180" width="10" height="10" fill="rgb(0, 0, 0)"/><rect x="130" y="190" width="10" height="10" fill="rgb(0, 0, 0)"/><rect x="140" y="190" width="10" height="10" fill="rgb(0, 0, 0)"/><rect x="180" y="190" width="10" height="10" fill="rgb(0, 0, 0)"/><rect x="190" y="190" width="10" height="10" fill="rgb(0, 0, 0)"/><rect x="320" y="190" width="10" height="10" fill="rgb(0, 0, 0)"/><rect x="330" y="190" width="10" height="10" fill="rgb(0, 0, 0)"/><rect x="380" y="190" width="10" height="10" fill="rgb(0, 0, 0)"/><rect x="120" y="200" width="10" height="10" fill="rgb(0, 0, 0)"/><rect x="130" y="200" width="10" height="10" fill="rgb(0, 0, 0)"/><rect x="180" y="200" width="10" height="10" fill="rgb(0, 0, 0)"/><rect x="190" y="200" width="10" height="10" fill="rgb(0, 0, 0)"/><rect x="320" y="200" width="10" height="10" fill="rgb(0, 0, 0)"/><rect x="330" y="200" width="10" height="10" fill="rgb(0, 0, 0)"/><rect x="370" y="200" width="10" height="10" fill="rgb(0, 0, 0)"/><rect x="380" y="200" width="10" height="10" fill="rgb(0, 0, 0)"/><rect x="130" y="210" width="10" height="10" fill="rgb(0, 0, 0)"/><rect x="160" y="210" width="10" height="10" fill="rgb(255, 98, 81)"/><rect x="170" y="210" width="10" height="10" fill="rgb(255, 98, 81)"/><rect x="340" y="210" width="10" height="10" fill="rgb(255, 98, 81)"/><rect x="350" y="210" width="10" height="10" fill="rgb(255, 98, 81)"/><rect x="380" y="210" width="10" height="10" fill="rgb(0, 0, 0)"/><rect x="390" y="210" width="10" height="10" fill="rgb(0, 0, 0)"/><rect x="130" y="220" width="10" height="10" fill="rgb(0, 0, 0)"/><rect x="240" y="220" width="10" height="10" fill="rgb(255, 252, 65)"/><rect x="250" y="220" width="10" height="10" fill="rgb(255, 252, 65)"/><rect x="260" y="220" width="10" height="10" fill="rgb(255, 252, 65)"/><rect x="380" y="220" width="10" height="10" fill="rgb(0, 0, 0)"/><rect x="140" y="230" width="10" height="10" fill="rgb(0, 0, 0)"/><rect x="370" y="230" width="10" height="10" fill="rgb(0, 0, 0)"/><rect x="150" y="240" width="10" height="10" fill="rgb(0, 0, 0)"/><rect x="160" y="240" width="10" height="10" fill="rgb(0, 0, 0)"/><rect x="350" y="240" width="10" height="10" fill="rgb(0, 0, 0)"/><rect x="360" y="240" width="10" height="10" fill="rgb(0, 0, 0)"/><rect x="170" y="250" width="10" height="10" fill="rgb(0, 0, 0)"/><rect x="180" y="250" width="10" height="10" fill="rgb(0, 0, 0)"/><rect x="190" y="250" width="10" height="10" fill="rgb(0, 0, 0)"/><rect x="320" y="250" width="10" height="10" fill="rgb(0, 0, 0)"/><rect x="330" y="250" width="10" height="10" fill="rgb(0, 0, 0)"/><rect x="340" y="250" width="10" height="10" fill="rgb(0, 0, 0)"/><rect x="190" y="260" width="10" height="10" fill="rgb(0, 0, 0)"/><rect x="200" y="260" width="10" height="10" fill="rgb(0, 0, 0)"/><rect x="210" y="260" width="10" height="10" fill="rgb(0, 0, 0)"/><rect x="220" y="260" width="10" height="10" fill="rgb(0, 0, 0)"/><rect x="230" y="260" width="10" height="10" fill="rgb(0, 0, 0)"/><rect x="240" y="260" width="10" height="10" fill="rgb(0, 0, 0)"/><rect x="250" y="260" width="10" height="10" fill="rgb(0, 0, 0)"/><rect x="260" y="260" width="10" height="10" fill="rgb(0, 0, 0)"/><rect x="270" y="260" width="10" height="10" fill="rgb(0, 0, 0)"/><rect x="280" y="260" width="10" height="10" fill="rgb(0, 0, 0)"/><rect x="290" y="260" width="10" height="10" fill="rgb(0, 0, 0)"/><rect x="300" y="260" width="10" height="10" fill="rgb(0, 0, 0)"/><rect x="310" y="260" width="10" height="10" fill="rgb(0, 0, 0)"/><rect x="320" y="260" width="10" height="10" fill="rgb(0, 0, 0)"/></svg>
